<?xml version="1.0" encoding="utf-8"?>
<?xml-stylesheet type="text/xsl" href="rss1.xsl"?>
<rss version="2.0" xmlns:atom="http://www.w3.org/2005/Atom" xmlns:content="http://purl.org/rss/1.0/modules/content/" xmlns:dc="http://purl.org/dc/elements/1.1/" xmlns:media="http://search.yahoo.com/mrss/">
<channel>
 <title>Getty</title>
 <link>http://www.gettyimg.com/</link>
 <atom:link href="http://www.gettyimg.com/" rel="self" type="application/rss+xml" />

 
                <item>
                <title><![CDATA[【Apple Music】WEB-RiP - Amber Liu - blue (Mandarin Version) [feat. Masiwei] (Apple Music HEVC 4K 2160p)]]></title>
                <link><![CDATA[https://sharemania.us/threads/amber-liu-blue-mandarin-version-feat-masiwei-apple-music-hevc-4k-2160p.234654/]]></link>
                <description><![CDATA[<article>
<blockquote class="messageText SelectQuoteContainer ugc baseHtml">
<div style="text-align: center"> <img src="https://i.ibb.co/Xy3wz5b/Amber-Liu-blue-Mandarin-Version-feat-Masiwei-Apple-Music-HEVC-4-K-2160p-m4v.png" class="bbCodeImage LbImage" alt="[​IMG]" data-url="https://i.ibb.co/Xy3wz5b/Amber-Liu-blue-Mandarin-Version-feat-Masiwei-Apple-Music-HEVC-4-K-2160p-m4v.png" style=""><br>
<br>
<span style="font-family: 'Abril Fatface'">Artist:</span> Amber Liu<br>
<span style="font-family: 'Abril Fatface'">Title:</span> blue (Mandarin Version) [feat. Masiwei]<br>
<span style="font-family: 'Abril Fatface'">Format:</span> .m4v<br>
<span style="font-family: 'Abril Fatface'">Codec:</span> H.265/HEVC<br>
<span style="font-family: 'Abril Fatface'">Ripped by:</span> <a href="https://sharemania.us/members/164517/" class="username" data-user="164517, @stargamer">@stargamer</a><br>
<br>
<span style="font-family: 'Abril Fatface'">Download:</span><br>
<div class="bbCodeBlock bbCodeVfcHH HiddenContent">
<div class="attribution type">Hidden Content:</div>
<blockquote>You must either reply or click 'Like' to see the hidden information contained here.</blockquote>
</div> </div>
<div class="messageTextEndMarker">&nbsp;</div>
</blockquote>
</article>]]></description>
                <author><![CDATA[stargamer]]></author>
                </item>

                
                <item>
                <title><![CDATA[【HD Live Performances】HDTV - iHeartRadio Jingle Ball 2023 HDTV MPEG2 720p DD5.1-ilya2129]]></title>
                <link><![CDATA[https://sharemania.us/threads/iheartradio-jingle-ball-2023-hdtv-mpeg2-720p-dd5-1-ilya2129.234646/]]></link>
                <description><![CDATA[<article>
<blockquote class="messageText SelectQuoteContainer ugc baseHtml">
<div style="text-align: center"><img src="https://i116.fastpic.org/big/2021/1224/05/297f091908daf1cbd25dc295bb908205.png?r=1" class="bbCodeImage LbImage" alt="[​IMG]" data-url="https://i116.fastpic.org/big/2021/1224/05/297f091908daf1cbd25dc295bb908205.png?r=1" style=""><br>
<br>
<a href="https://postimg.cc/t1mP8LMk" target="_blank" class="externalLink" rel="nofollow"><img src="https://i.postimg.cc/t1mP8LMk/vlcsnap-2023-12-25-18h04m46s317.png" class="bbCodeImage LbImage" alt="[​IMG]" data-url="https://i.postimg.cc/t1mP8LMk/vlcsnap-2023-12-25-18h04m46s317.png"></a> <a href="https://postimg.cc/nXFDrF8T" target="_blank" class="externalLink" rel="nofollow"><img src="https://i.postimg.cc/nXFDrF8T/vlcsnap-2023-12-25-18h04m47s859.png" class="bbCodeImage LbImage" alt="[​IMG]" data-url="https://i.postimg.cc/nXFDrF8T/vlcsnap-2023-12-25-18h04m47s859.png"></a> <a href="https://postimg.cc/bsHnqG5s" target="_blank" class="externalLink" rel="nofollow"><img src="https://i.postimg.cc/bsHnqG5s/vlcsnap-2023-12-25-18h04m53s819.png" class="bbCodeImage LbImage" alt="[​IMG]" data-url="https://i.postimg.cc/bsHnqG5s/vlcsnap-2023-12-25-18h04m53s819.png"></a> <a href="https://postimg.cc/NLXTPC78" target="_blank" class="externalLink" rel="nofollow"><img src="https://i.postimg.cc/NLXTPC78/vlcsnap-2023-12-25-18h04m55s702.png" class="bbCodeImage LbImage" alt="[​IMG]" data-url="https://i.postimg.cc/NLXTPC78/vlcsnap-2023-12-25-18h04m55s702.png"></a> <a href="https://postimg.cc/ftGdRYZ0" target="_blank" class="externalLink" rel="nofollow"><img src="https://i.postimg.cc/ftGdRYZ0/vlcsnap-2023-12-25-18h04m59s538.png" class="bbCodeImage LbImage" alt="[​IMG]" data-url="https://i.postimg.cc/ftGdRYZ0/vlcsnap-2023-12-25-18h04m59s538.png"></a> <a href="https://postimg.cc/SYcM2jN1" target="_blank" class="externalLink" rel="nofollow"><img src="https://i.postimg.cc/SYcM2jN1/vlcsnap-2023-12-25-18h05m01s320.png" class="bbCodeImage LbImage" alt="[​IMG]" data-url="https://i.postimg.cc/SYcM2jN1/vlcsnap-2023-12-25-18h05m01s320.png"></a> <a href="https://postimg.cc/hfqxF8pk" target="_blank" class="externalLink" rel="nofollow"><img src="https://i.postimg.cc/hfqxF8pk/vlcsnap-2023-12-25-18h05m03s067.png" class="bbCodeImage LbImage" alt="[​IMG]" data-url="https://i.postimg.cc/hfqxF8pk/vlcsnap-2023-12-25-18h05m03s067.png"></a> <a href="https://postimg.cc/d7Xk5GhS" target="_blank" class="externalLink" rel="nofollow"><img src="https://i.postimg.cc/d7Xk5GhS/vlcsnap-2023-12-25-18h05m05s833.png" class="bbCodeImage LbImage" alt="[​IMG]" data-url="https://i.postimg.cc/d7Xk5GhS/vlcsnap-2023-12-25-18h05m05s833.png"></a> <a href="https://postimg.cc/5HjQ5s2C" target="_blank" class="externalLink" rel="nofollow"><img src="https://i.postimg.cc/5HjQ5s2C/vlcsnap-2023-12-25-18h05m13s449.png" class="bbCodeImage LbImage" alt="[​IMG]" data-url="https://i.postimg.cc/5HjQ5s2C/vlcsnap-2023-12-25-18h05m13s449.png"></a> <br>
<br>
Olivia Rodrigo - all‐american bitch<br>
Cher - Believe<br>
Niall Horan - Nice To Meet Ya<br>
Paul Russel - Lil Boo Thang<br>
Sabrina Carpenter - Nonsense<br>
Doechii - What It Is<br>
OneRepublic - Counting Stars<br>
SZA - Kill Bill<br>
Jelly Roll - Save Me<br>
Niall Horan - Heaven<br>
Olivia Rodrigo - vampire<br>
Pentatonix - Hallelujah<br>
Melanie Martinez - EVIL<br>
Sabrina Carpenter - Feather<br>
Big Time Rush - Boyfriend<br>
AJR - Yes I'm A Mess<br>
Olivia Rodrigo - Can’t Catch Me Now<br>
Cher - DJ Play a Christmas Song<br>
​</div><br>
<div class="bbCodeBlock bbCodeCode">
<div class="type">Code:</div>
<pre>General
Unique ID                                : 141554816912937482481150595841592335946 (0x6A7E775022234F09A18861162FE71E4A)
Complete name                            : F:\iHeartRadio Jingle Ball 2023 HDTV MPEG2 720p DD5.1-ilya2129.mkv
Format                                   : Matroska
Format version                           : Version 4
File size                                : 4.14 GiB
Duration                                 : 1 h 24 min
Overall bit rate mode                    : Variable
Overall bit rate                         : 7 014 kb/s
Frame rate                               : 59.940 FPS
Encoded date                             : 2023-12-25 14:39:47 UTC
Writing application                      : mkvmerge v72.0.0 ('Minuano (Six-eight)') 64-bit
Writing library                          : libebml v1.4.4 + libmatroska v1.7.1

Video
ID                                       : 1
Format                                   : MPEG Video
Commercial name                          : HDV 720p
Format version                           : Version 2
Format profile                           : Main@High
Format settings                          : CustomMatrix / BVOP
Format settings, BVOP                    : Yes
Format settings, Matrix                  : Custom
Format settings, GOP                     : M=3, N=48
Codec ID                                 : V_MPEG2
Codec ID/Info                            : MPEG 1 or 2 Video
Duration                                 : 1 h 24 min
Bit rate mode                            : Variable
Bit rate                                 : 6 491 kb/s
Maximum bit rate                         : 17.6 Mb/s
Width                                    : 1 280 pixels
Height                                   : 720 pixels
Display aspect ratio                     : 16:9
Active Format Description                : Letterbox 16:9 image
Frame rate mode                          : Constant
Frame rate                               : 59.940 (60000/1001) FPS
Color space                              : YUV
Chroma subsampling                       : 4:2:0
Bit depth                                : 8 bits
Scan type                                : Progressive
Compression mode                         : Lossy
Bits/(Pixel*Frame)                       : 0.117
Time code of first frame                 : 04:21:23;39
Time code source                         : Group of pictures header
GOP, Open/Closed                         : Open
GOP, Open/Closed of first frame          : Closed
Stream size                              : 3.83 GiB (93%)
Default                                  : Yes
Forced                                   : No

Audio
ID                                       : 2
Format                                   : AC-3
Format/Info                              : Audio Coding 3
Commercial name                          : Dolby Digital
Codec ID                                 : A_AC3
Duration                                 : 1 h 24 min
Bit rate mode                            : Constant
Bit rate                                 : 384 kb/s
Channel(s)                               : 6 channels
Channel layout                           : L R C LFE Ls Rs
Sampling rate                            : 48.0 kHz
Frame rate                               : 31.250 FPS (1536 SPF)
Compression mode                         : Lossy
Delay relative to video                  : 6 ms
Stream size                              : 232 MiB (5%)
Language                                 : English
Service kind                             : Complete Main
Default                                  : Yes
Forced                                   : No

Menu
00:58:30.000                             : en:Olivia Rodrigo - all‐american bitch
00:07:23.000                             : en:Cher - Believe
00:15:07.000                             : en:Niall Horan - Nice To Meet Ya
00:21:39.000                             : en:Paul Russel - Lil Boo Thang
00:24:43.000                             : en:Sabrina Carpenter - Nonsense
00:29:56.000                             : en:Doechii - What It Is
00:33:58.000                             : en:OneRepublic - Counting Stars
00:39:54.000                             : en:SZA - Kill Bill
00:46:48.000                             : en:Jelly Roll - Save Me
00:52:03.000                             : en:Niall Horan - Heaven
00:55:18.000                             : en:Olivia Rodrigo - vampire
01:00:50.000                             : en:Pentatonix - Hallelujah
01:02:56.000                             : en:Melanie Martinez - EVIL
01:05:19.000                             : en:Sabrina Carpenter - Feather
01:09:44.000                             : en:Big Time Rush - Boyfriend
01:11:54.000                             : en:AJR - Yes I'm A Mess
01:15:52.000                             : en:Olivia Rodrigo - Can’t Catch Me Now
01:19:57.000                             : en:Cher - DJ Play a Christmas Song

</pre>
</div><div style="text-align: center">
<div class="bbCodeBlock bbCodeVfcHH HiddenContent">
<div class="attribution type">Hidden Content:</div>
<blockquote>You must reply before you can see the hidden data contained here.</blockquote>
</div></div>
<div class="messageTextEndMarker">&nbsp;</div>
</blockquote>
</article>]]></description>
                <author><![CDATA[ilya2129]]></author>
                </item>

                
                <item>
                <title><![CDATA[【Apple Music】WEB-RiP - A$AP Rocky - RIOT (Rowdy Pipe'n) (Apple Music HEVC 4K 2160p)]]></title>
                <link><![CDATA[https://sharemania.us/threads/a-ap-rocky-riot-rowdy-pipen-apple-music-hevc-4k-2160p.234647/]]></link>
                <description><![CDATA[<article>
<blockquote class="messageText SelectQuoteContainer ugc baseHtml">
thanx
<div class="messageTextEndMarker">&nbsp;</div>
</blockquote>
</article>]]></description>
                <author><![CDATA[stargamer]]></author>
                </item>

                
                <item>
                <title><![CDATA[【Apple Music】WEB-RiP - Passenger - Let Her Go (Feat. Ed Sheeran) (Anniversary Edition) (Apple Music HEVC 4K 2160p)]]></title>
                <link><![CDATA[https://sharemania.us/threads/passenger-let-her-go-feat-ed-sheeran-anniversary-edition-apple-music-hevc-4k-2160p.234651/]]></link>
                <description><![CDATA[<article>
<blockquote class="messageText SelectQuoteContainer ugc baseHtml">
thanks
<div class="messageTextEndMarker">&nbsp;</div>
</blockquote>
</article>]]></description>
                <author><![CDATA[stargamer]]></author>
                </item>

                
                <item>
                <title><![CDATA[【Apple Music】WEB-RiP - Colbie Caillat - Favorite Song (feat. Common) (Apple Music 1064p)]]></title>
                <link><![CDATA[https://sharemania.us/threads/colbie-caillat-favorite-song-feat-common-apple-music-1064p.234650/]]></link>
                <description><![CDATA[<article>
<blockquote class="messageText SelectQuoteContainer ugc baseHtml">
<div style="text-align: center"> <img src="https://i.ibb.co/f2ZYSQ3/A-AP-Rocky-RIOT-Rowdy-Pipe-n-Apple-Music-HEVC-4-K-2160p-m4v.png" class="bbCodeImage LbImage" alt="[​IMG]" data-url="https://i.ibb.co/f2ZYSQ3/A-AP-Rocky-RIOT-Rowdy-Pipe-n-Apple-Music-HEVC-4-K-2160p-m4v.png" style=""><br>
<br>
<span style="font-family: 'Abril Fatface'">Artist:</span> A$AP Rocky<br>
<span style="font-family: 'Abril Fatface'">Title:</span> RIOT (Rowdy Pipe'n)<br>
<span style="font-family: 'Abril Fatface'">Format:</span> .m4v<br>
<span style="font-family: 'Abril Fatface'">Codec:</span> H.265/HEVC<br>
<span style="font-family: 'Abril Fatface'">Ripped by:</span> <a href="https://sharemania.us/members/164517/" class="username" data-user="164517, @stargamer">@stargamer</a><br>
<br>
<span style="font-family: 'Abril Fatface'">Download:</span><br>
<div class="bbCodeBlock bbCodeVfcHH HiddenContent">
<div class="attribution type">Hidden Content:</div>
<blockquote>You must either reply or click 'Like' to see the hidden information contained here.</blockquote>
</div> </div>
<div class="messageTextEndMarker">&nbsp;</div>
</blockquote>
</article>]]></description>
                <author><![CDATA[stargamer]]></author>
                </item>

                
                <item>
                <title><![CDATA[【HD Live Performances】HDTV - CMA Country Christmas 2023 HDTV H264 1080i DD5.1-ilya2129]]></title>
                <link><![CDATA[https://sharemania.us/threads/cma-country-christmas-2023-hdtv-h264-1080i-dd5-1-ilya2129.234649/]]></link>
                <description><![CDATA[<article>
<blockquote class="messageText SelectQuoteContainer ugc baseHtml">
<div style="text-align: center"> <img src="https://i.ibb.co/N9KPpnG/Passenger-Let-Her-Go-Feat-Ed-Sheeran-Anniversary-Edition-Apple-Music-HEVC-4-K-2160p-m4v.png" class="bbCodeImage LbImage" alt="[​IMG]" data-url="https://i.ibb.co/N9KPpnG/Passenger-Let-Her-Go-Feat-Ed-Sheeran-Anniversary-Edition-Apple-Music-HEVC-4-K-2160p-m4v.png" style=""><br>
<br>
<span style="font-family: 'Abril Fatface'">Artist:</span> Passenger<br>
<span style="font-family: 'Abril Fatface'">Title:</span> Let Her Go (Feat. Ed Sheeran) (Anniversary Edition)<br>
<span style="font-family: 'Abril Fatface'">Format:</span> .m4v<br>
<span style="font-family: 'Abril Fatface'">Codec:</span> H.265/HEVC<br>
<span style="font-family: 'Abril Fatface'">Ripped by:</span> <a href="https://sharemania.us/members/164517/" class="username" data-user="164517, @stargamer">@stargamer</a><br>
<br>
<span style="font-family: 'Abril Fatface'">Download:</span><br>
<div class="bbCodeBlock bbCodeVfcHH HiddenContent">
<div class="attribution type">Hidden Content:</div>
<blockquote>You must either reply or click 'Like' to see the hidden information contained here.</blockquote>
</div> </div>
<div class="messageTextEndMarker">&nbsp;</div>
</blockquote>
</article>]]></description>
                <author><![CDATA[ilya2129]]></author>
                </item>

                
                <item>
                <title><![CDATA[【Requests】[REQ VID] - KYLIE MINOGUE TIDAL MUSIC VIDEOS]]></title>
                <link><![CDATA[https://sharemania.us/threads/kylie-minogue-tidal-music-videos.234653/]]></link>
                <description><![CDATA[<article>
<blockquote class="messageText SelectQuoteContainer ugc baseHtml">
<div style="text-align: center"> <img src="https://i.ibb.co/RC1r85s/Colbie-Caillat-Favorite-Song-feat-Common-Apple-Music-1064p-m4v.png" class="bbCodeImage LbImage" alt="[​IMG]" data-url="https://i.ibb.co/RC1r85s/Colbie-Caillat-Favorite-Song-feat-Common-Apple-Music-1064p-m4v.png" style=""><br>
<br>
<span style="font-family: 'Abril Fatface'">Artist:</span> Colbie Caillat<br>
<span style="font-family: 'Abril Fatface'">Title:</span> Favorite Song (feat. Common)<br>
<span style="font-family: 'Abril Fatface'">Format:</span> .m4v<br>
<span style="font-family: 'Abril Fatface'">Codec:</span> H.264<br>
<span style="font-family: 'Abril Fatface'">Ripped by:</span> <a href="https://sharemania.us/members/164517/" class="username" data-user="164517, @stargamer">@stargamer</a><br>
<br>
<span style="font-family: 'Abril Fatface'">Download:</span><br>
<div class="bbCodeBlock bbCodeVfcHH HiddenContent">
<div class="attribution type">Hidden Content:</div>
<blockquote>You must either reply or click 'Like' to see the hidden information contained here.</blockquote>
</div> </div>
<div class="messageTextEndMarker">&nbsp;</div>
</blockquote>
</article>]]></description>
                <author><![CDATA[lalololo]]></author>
                </item>

                
                <item>
                <title><![CDATA[【Apple Music】WEB-RiP - Alan Walker, Dash Berlin &amp; Vikkstar - Better Off (Alone, Pt. III) (Apple Music HEVC 4K 2160p)]]></title>
                <link><![CDATA[https://sharemania.us/threads/alan-walker-dash-berlin-vikkstar-better-off-alone-pt-iii-apple-music-hevc-4k-2160p.234648/]]></link>
                <description><![CDATA[<article>
<blockquote class="messageText SelectQuoteContainer ugc baseHtml">
<div style="text-align: center"><img src="https://i122.fastpic.org/big/2023/1225/79/e87395e3aee6e5627766789f96c24279.png?r=1" class="bbCodeImage LbImage" alt="[​IMG]" data-url="https://i122.fastpic.org/big/2023/1225/79/e87395e3aee6e5627766789f96c24279.png?r=1" style=""><br>
<br>
<a href="https://postimg.cc/K4hDP3d8" target="_blank" class="externalLink" rel="nofollow"><img src="https://i.postimg.cc/K4hDP3d8/vlcsnap-2023-12-25-17h34m11s996.png" class="bbCodeImage LbImage" alt="[​IMG]" data-url="https://i.postimg.cc/K4hDP3d8/vlcsnap-2023-12-25-17h34m11s996.png"></a> <a href="https://postimg.cc/LJWznJtR" target="_blank" class="externalLink" rel="nofollow"><img src="https://i.postimg.cc/LJWznJtR/vlcsnap-2023-12-25-17h34m14s903.png" class="bbCodeImage LbImage" alt="[​IMG]" data-url="https://i.postimg.cc/LJWznJtR/vlcsnap-2023-12-25-17h34m14s903.png"></a> <a href="https://postimg.cc/G4tFLFsq" target="_blank" class="externalLink" rel="nofollow"><img src="https://i.postimg.cc/G4tFLFsq/vlcsnap-2023-12-25-17h34m16s315.png" class="bbCodeImage LbImage" alt="[​IMG]" data-url="https://i.postimg.cc/G4tFLFsq/vlcsnap-2023-12-25-17h34m16s315.png"></a> <a href="https://postimg.cc/RJvtjKB1" target="_blank" class="externalLink" rel="nofollow"><img src="https://i.postimg.cc/RJvtjKB1/vlcsnap-2023-12-25-17h34m25s322.png" class="bbCodeImage LbImage" alt="[​IMG]" data-url="https://i.postimg.cc/RJvtjKB1/vlcsnap-2023-12-25-17h34m25s322.png"></a> <a href="https://postimg.cc/S2FCfH1v" target="_blank" class="externalLink" rel="nofollow"><img src="https://i.postimg.cc/S2FCfH1v/vlcsnap-2023-12-25-17h34m30s165.png" class="bbCodeImage LbImage" alt="[​IMG]" data-url="https://i.postimg.cc/S2FCfH1v/vlcsnap-2023-12-25-17h34m30s165.png"></a> <a href="https://postimg.cc/ThxnLMDy" target="_blank" class="externalLink" rel="nofollow"><img src="https://i.postimg.cc/ThxnLMDy/vlcsnap-2023-12-25-17h34m33s559.png" class="bbCodeImage LbImage" alt="[​IMG]" data-url="https://i.postimg.cc/ThxnLMDy/vlcsnap-2023-12-25-17h34m33s559.png"></a> <br>
<br>
Amy Grant, Trisha Yearwood - Hark! The Herald Angels Sing<br>
Amy Grant, Trisha Yearwood, Lindsey Stirling - Joy to the World<br>
Amy Grant - Grown Up Christmas List<br>
Trisha Yearwood, Lindsey Stirling - O Holy Night<br>
Jordan Davis - O Come All Ye Faithful<br>
Lady A - What Christmas Means to Me<br>
Ashley McBryde, Lindsey Stirling - You're a Mean One, Mr. Grinch<br>
Jon Pardi - Beer for Santa<br>
The War And Treaty - Christmas (Baby, Please Come Home)<br>
Zach Williams, Lainey Wilson - Go Tell It On The Mountain<br>
​</div><br>
<div class="bbCodeBlock bbCodeCode">
<div class="type">Code:</div>
<pre>General
ID                                       : 1 (0x1)
Complete name                            : F:\CMA Country Christmas 2023 HDTV H264 1080i DD5.1-ilya2129.ts
Format                                   : MPEG-TS
File size                                : 2.97 GiB
Duration                                 : 43 min 44 s
Overall bit rate mode                    : Variable
Overall bit rate                         : 9 732 kb/s
Frame rate                               : 29.970 FPS
Law rating                               : PG

Video
ID                                       : 301 (0x12D)
Menu ID                                  : 1 (0x1)
Format                                   : AVC
Format/Info                              : Advanced Video Codec
Format profile                           : High@L4
Format settings                          : CABAC / 2 Ref Frames
Format settings, CABAC                   : Yes
Format settings, Reference frames        : 2 frames
Format settings, GOP                     : M=3, N=60
Codec ID                                 : 27
Duration                                 : 43 min 44 s
Bit rate mode                            : Variable
Bit rate                                 : 8 863 kb/s
Maximum bit rate                         : 12.0 Mb/s
Width                                    : 1 920 pixels
Height                                   : 1 080 pixels
Display aspect ratio                     : 16:9
Frame rate                               : 29.970 (30000/1001) FPS
Standard                                 : Component
Color space                              : YUV
Chroma subsampling                       : 4:2:0
Bit depth                                : 8 bits
Scan type                                : MBAFF
Scan type, store method                  : Interleaved fields
Scan order                               : Top Field First
Bits/(Pixel*Frame)                       : 0.143
Stream size                              : 2.71 GiB (91%)
Color range                              : Limited
Color primaries                          : BT.709
Transfer characteristics                 : BT.709
Matrix coefficients                      : BT.709

Audio
ID                                       : 302 (0x12E)
Menu ID                                  : 1 (0x1)
Format                                   : AC-3
Format/Info                              : Audio Coding 3
Commercial name                          : Dolby Digital
Codec ID                                 : 129
Duration                                 : 43 min 44 s
Bit rate mode                            : Constant
Bit rate                                 : 384 kb/s
Channel(s)                               : 6 channels
Channel layout                           : L R C LFE Ls Rs
Sampling rate                            : 48.0 kHz
Frame rate                               : 31.250 FPS (1536 SPF)
Compression mode                         : Lossy
Delay relative to video                  : -66 ms
Stream size                              : 120 MiB (4%)
Language                                 : English
Service kind                             : Complete Main

Text #1
ID                                       : 301 (0x12D)-CC1
Menu ID                                  : 1 (0x1)
Format                                   : EIA-608
Muxing mode                              : SCTE 128 / DTVCC Transport
Muxing mode, more info                   : Muxed in Video #1
Duration                                 : 43 min 44 s
Duration of the visible content          : 43 min 23 s
Start time (commands)                    : 7 s 707 ms
Start time                               : 8 s 41 ms
End time                                 : 43 min 31 s
Bit rate mode                            : Constant
Stream size                              : 0.00 Byte (0%)
Count of frames before first event       : 279
Type of the first event                  : PopOn

Text #2
ID                                       : 301 (0x12D)-1
Menu ID                                  : 1 (0x1)
Format                                   : EIA-708
Muxing mode                              : SCTE 128 / DTVCC Transport
Muxing mode, more info                   : Muxed in Video #1
Duration                                 : 43 min 44 s
Bit rate mode                            : Constant
Stream size                              : 0.00 Byte (0%)

Text #3
ID                                       : 301 (0x12D)-2
Menu ID                                  : 1 (0x1)
Format                                   : EIA-708
Muxing mode                              : SCTE 128 / DTVCC Transport
Muxing mode, more info                   : Muxed in Video #1
Duration                                 : 43 min 44 s
Bit rate mode                            : Constant
Stream size                              : 0.00 Byte (0%)


</pre>
</div><div style="text-align: center">
<div class="bbCodeBlock bbCodeVfcHH HiddenContent">
<div class="attribution type">Hidden Content:</div>
<blockquote>You must reply before you can see the hidden data contained here.</blockquote>
</div></div>
<div class="messageTextEndMarker">&nbsp;</div>
</blockquote>
</article>]]></description>
                <author><![CDATA[stargamer]]></author>
                </item>

                
                <item>
                <title><![CDATA[【Apple Music】WEB-RiP - Passenger &amp; Gabrielle Aplin - Circles (Anniversary Edition) (Apple Music HEVC 4K 2160p)]]></title>
                <link><![CDATA[https://sharemania.us/threads/passenger-gabrielle-aplin-circles-anniversary-edition-apple-music-hevc-4k-2160p.234652/]]></link>
                <description><![CDATA[<article>
<blockquote class="messageText SelectQuoteContainer ugc baseHtml">
thanx
<div class="messageTextEndMarker">&nbsp;</div>
</blockquote>
</article>]]></description>
                <author><![CDATA[stargamer]]></author>
                </item>

                </channel></rss>